<mxfile host="app.diagrams.net" modified="2024-06-23T13:58:23.561Z" agent="Mozilla/5.0 (X11; Linux x86_64; rv:126.0) Gecko/20100101 Firefox/126.0" version="24.6.2" etag="zIe_OVXcOIGD2tq0n2fV" type="github">
  <diagram name="Page-1" id="QzZd_IAzWdYlVaJUvz0e">
    <mxGraphModel>
      <root>
        <mxCell id="0" />
        <mxCell id="1" parent="0" />
      </root>
    </mxGraphModel>
  </diagram>
</mxfile>
